<?xml version="1.0" encoding="utf-8"?>
<!-- Generator: Adobe Illustrator 19.2.1, SVG Export Plug-In . SVG Version: 6.00 Build 0)  -->
<svg version="1.1" id="Layer_1" xmlns="http://www.w3.org/2000/svg" xmlns:xlink="http://www.w3.org/1999/xlink" x="0px" y="0px"
	 viewBox="0 0 878 1024" style="enable-background:new 0 0 878 1024;" xml:space="preserve">
<style type="text/css">
	.st0{fill:#FFFFFF;}
	.st1{fill:#0FB9B1;}
</style>
<g>
	
		<image style="overflow:visible;opacity:0.81;" width="926" height="926" xlink:href="48F08738.png"  transform="matrix(1 0 0 1 -16 58)">
	</image>
	<g>
		<g>
			<path class="st0" d="M409.7,226.9c-7.2-7.2-15.8-10.9-25.7-10.9s-18.5,3.6-25.7,10.9L300,285.1c-7.2,7.2-10.9,15.8-10.9,25.7
				s3.6,18.5,10.9,25.7L475.4,512L300,687.4c-7.2,7.2-10.9,15.8-10.9,25.7s3.6,18.5,10.9,25.7l58.3,58.3
				c7.2,7.2,15.8,10.9,25.7,10.9s18.5-3.6,25.7-10.9l259.4-259.4c7.2-7.2,10.9-15.8,10.9-25.7s-3.6-18.5-10.9-25.7L409.7,226.9z"/>
			<path class="st1" d="M818.9,291.7c-39.2-67.2-92.5-120.5-159.7-159.7c-67.3-39.3-140.7-58.9-220.3-58.9s-153,19.7-220.3,58.9
				S98.2,224.4,58.9,291.7C19.6,359,0,432.4,0,512s19.6,153.1,58.8,220.3S151.3,852.8,218.5,892c67.3,39.3,140.7,58.9,220.3,58.9
				s153.1-19.7,220.3-58.9s120.5-92.5,159.7-159.7c39.3-67.3,58.9-140.7,58.9-220.3S858.1,359,818.9,291.7z M669.1,537.7
				L409.7,797.1c-7.2,7.3-15.8,10.9-25.7,10.9s-18.5-3.7-25.7-10.9L300,738.8c-7.3-7.2-10.9-15.8-10.9-25.7s3.7-18.5,10.9-25.7
				L475.4,512L300,336.5c-7.3-7.2-10.9-15.8-10.9-25.7s3.7-18.5,10.9-25.7l58.3-58.2c7.2-7.3,15.8-10.9,25.7-10.9
				s18.5,3.7,25.7,10.9l259.4,259.4c7.3,7.2,10.9,15.8,10.9,25.7S676.3,530.5,669.1,537.7z"/>
		</g>
	</g>
</g>
</svg>
